<?xml version="1.0"?>
<svg width="16" height="16" xmlns="http://www.w3.org/2000/svg" xmlns:svg="http://www.w3.org/2000/svg">
 <g class="layer">
  <title>Layer 1</title>
  <path clip-rule="evenodd" d="m4,0l2,0l0,2l4,0l0,2l-1.13,0c-0.3,1.67 -1.08,3.17 -2.2,4.35c0.8,0.39 1.69,0.62 2.63,0.65l0.97,-3l2.46,0l3.25,10l-2.11,0l-0.65,-2l-3.44,0l-0.65,2l-2.11,0l1.64,-5.04c-1.33,-0.13 -2.58,-0.57 -3.66,-1.25c-1.31,0.82 -2.85,1.29 -4.5,1.29l-0.5,0l0,-2l0.5,0c1.02,0 1.98,-0.23 2.83,-0.65c-0.65,-0.68 -1.18,-1.48 -1.58,-2.35l2.27,0c0.28,0.43 0.61,0.83 0.98,1.19c0.89,-0.85 1.53,-1.95 1.83,-3.19l-6.83,0l0,-2l4,0l0,-2zm8.57,12l-1.07,-3.3l-1.07,3.3l2.14,0z" fill="#243642" fill-rule="evenodd" id="svg_1"/>
 </g>
</svg>